<svg xmlns="http://www.w3.org/2000/svg" width="640" height="480" viewBox="0 0 640 480">
  <rect width="640" height="480" fill="#0f1419"/>
  <g stroke="#1e2a36" stroke-width="1">
    <path d="M0 80 H640 M0 160 H640 M0 240 H640 M0 320 H640 M0 400 H640"/>
    <path d="M80 0 V480 M160 0 V480 M240 0 V480 M320 0 V480 M400 0 V480 M480 0 V480 M560 0 V480"/>
  </g>
  <rect x="50" y="80" width="180" height="220" fill="#1a2430" stroke="#64748b" stroke-width="2"/>
  <text x="60" y="100" fill="#64748b" font-size="14" font-family="monospace">S-04</text>
  <rect x="260" y="80" width="180" height="220" fill="#2a1a1a" stroke="#ef4444" stroke-width="2"/>
  <text x="270" y="100" fill="#ef4444" font-size="14" font-family="monospace">S-05</text>
  <rect x="470" y="100" width="140" height="200" fill="#1a2430" stroke="#22c55e" stroke-width="2"/>
  <text x="480" y="120" fill="#22c55e" font-size="14" font-family="monospace">E-04</text>
  <rect x="20" y="20" width="120" height="28" fill="#000000aa" rx="4"/>
  <text x="30" y="40" fill="#94a3b8" font-size="12" font-family="monospace">CAM-4 · SNAPSHOT</text>
</svg>
